<svg width="41" height="40" viewBox="0 0 41 40" fill="none" xmlns="http://www.w3.org/2000/svg">
<g clip-path="url(#clip0_126_88)">
<path d="M20.5 3.61298C25.84 3.61298 26.4733 3.63298 28.5817 3.72964C30.7617 3.82964 33.0067 4.32631 34.595 5.91464C36.1983 7.51798 36.68 9.74131 36.78 11.928C36.8767 14.0363 36.8967 14.6696 36.8967 20.0096C36.8967 25.3496 36.8767 25.983 36.78 28.0913C36.6817 30.2596 36.1733 32.5263 34.595 34.1046C32.9917 35.708 30.77 36.1896 28.5817 36.2896C26.4733 36.3863 25.84 36.4063 20.5 36.4063C15.16 36.4063 14.5267 36.3863 12.4183 36.2896C10.2667 36.1913 7.97 35.6713 6.405 34.1046C4.81 32.5096 4.32 30.2646 4.22 28.0913C4.12333 25.983 4.10333 25.3496 4.10333 20.0096C4.10333 14.6696 4.12333 14.0363 4.22 11.928C4.31833 9.76798 4.83167 7.48798 6.405 5.91464C8.005 4.31464 10.2367 3.82964 12.4183 3.72964C14.5267 3.63298 15.16 3.61298 20.5 3.61298ZM20.5 0.00964355C15.0683 0.00964355 14.3867 0.0329769 12.2533 0.129644C9.16167 0.27131 6.09167 1.13131 3.85667 3.36631C1.61333 5.60964 0.761667 8.67298 0.62 11.763C0.523333 13.8963 0.5 14.578 0.5 20.0096C0.5 25.4413 0.523333 26.123 0.62 28.2563C0.761667 31.3446 1.625 34.423 3.85667 36.653C6.09833 38.8946 9.16667 39.748 12.2533 39.8896C14.3867 39.9863 15.0683 40.0096 20.5 40.0096C25.9317 40.0096 26.6133 39.9863 28.7467 39.8896C31.8367 39.748 34.91 38.8863 37.1433 36.653C39.3883 34.408 40.2383 31.3463 40.38 28.2563C40.4767 26.123 40.5 25.4413 40.5 20.0096C40.5 14.578 40.4767 13.8963 40.38 11.763C40.2383 8.67131 39.3767 5.59964 37.1433 3.36631C34.905 1.12798 31.8283 0.269644 28.7467 0.129644C26.6133 0.0329769 25.9317 0.00964355 20.5 0.00964355Z" fill="#F1F1F1"/>
<path d="M20.5 9.73962C14.8283 9.73962 10.23 14.338 10.23 20.0096C10.23 25.6813 14.8283 30.2796 20.5 30.2796C26.1716 30.2796 30.77 25.6813 30.77 20.0096C30.77 14.338 26.1716 9.73962 20.5 9.73962ZM20.5 26.6763C16.8183 26.6763 13.8333 23.6913 13.8333 20.0096C13.8333 16.328 16.8183 13.343 20.5 13.343C24.1816 13.343 27.1667 16.328 27.1667 20.0096C27.1667 23.6913 24.1816 26.6763 20.5 26.6763Z" fill="#F1F1F1"/>
<path d="M31.1769 11.733C32.5023 11.733 33.5769 10.6585 33.5769 9.33298C33.5769 8.0075 32.5023 6.93298 31.1769 6.93298C29.8514 6.93298 28.7769 8.0075 28.7769 9.33298C28.7769 10.6585 29.8514 11.733 31.1769 11.733Z" fill="#F1F1F1"/>
</g>
<defs>
<clipPath id="clip0_126_88">
<rect width="40" height="40" fill="white" transform="translate(0.5 0.00964355)"/>
</clipPath>
</defs>
</svg>
