<svg width="41" height="40" viewBox="0 0 41 40" fill="none" xmlns="http://www.w3.org/2000/svg">
<g clip-path="url(#clip0_126_93)">
<path fill-rule="evenodd" clip-rule="evenodd" d="M34.6052 5.82298C30.8619 2.07631 25.8852 0.0113102 20.5835 0.00964355C9.65855 0.00964355 0.766882 8.89964 0.761882 19.8296C0.760215 23.323 1.67355 26.733 3.40855 29.7396L0.595215 40.0096L11.1019 37.253C13.9969 38.833 17.2569 39.6646 20.5735 39.6663H20.5819C31.5052 39.6663 40.3986 30.7746 40.4035 19.8446C40.4069 14.5496 38.3469 9.56798 34.6052 5.82298ZM20.5835 36.318H20.5769C17.6202 36.318 14.7219 35.523 12.1919 34.0213L11.5902 33.6646L5.35522 35.2996L7.02022 29.2196L6.62855 28.5963C4.97855 25.973 4.10855 22.9413 4.11021 19.8296C4.11355 10.7463 11.5052 3.35631 20.5919 3.35631C24.9919 3.35631 29.1285 5.07298 32.2386 8.18631C35.3485 11.3013 37.0602 15.4396 37.0586 19.8413C37.0536 28.928 29.6635 36.318 20.5835 36.318ZM29.6202 23.9796C29.1252 23.7313 26.6902 22.533 26.2352 22.368C25.7819 22.203 25.4519 22.1196 25.1202 22.6146C24.7885 23.1096 23.8419 24.2263 23.5519 24.558C23.2635 24.888 22.9735 24.9296 22.4785 24.6813C21.9835 24.433 20.3869 23.9113 18.4952 22.223C17.0235 20.9096 16.0285 19.288 15.7402 18.7913C15.4519 18.2946 15.7102 18.028 15.9569 17.7813C16.1802 17.5596 16.4519 17.203 16.7002 16.913C16.9502 16.6263 17.0319 16.4196 17.1985 16.088C17.3635 15.758 17.2819 15.468 17.1569 15.2196C17.0319 14.973 16.0419 12.5346 15.6302 11.543C15.2285 10.5763 14.8202 10.708 14.5152 10.693C14.2269 10.678 13.8969 10.6763 13.5652 10.6763C13.2352 10.6763 12.6985 10.7996 12.2452 11.2963C11.7919 11.793 10.5119 12.9913 10.5119 15.428C10.5119 17.8663 12.2869 20.2213 12.5335 20.5513C12.7802 20.8813 16.0252 25.8846 20.9935 28.0296C22.1752 28.5396 23.0985 28.8446 23.8169 29.073C25.0035 29.4496 26.0835 29.3963 26.9369 29.2696C27.8885 29.128 29.8669 28.0713 30.2802 26.9146C30.6936 25.758 30.6936 24.7646 30.5686 24.5596C30.4452 24.3513 30.1152 24.228 29.6202 23.9796Z" fill="#F1F1F1"/>
</g>
<defs>
<clipPath id="clip0_126_93">
<rect width="40" height="40" fill="white" transform="translate(0.5 0.00964355)"/>
</clipPath>
</defs>
</svg>
